<svg width="26" height="26" viewBox="0 0 26 26" fill="none" xmlns="http://www.w3.org/2000/svg">
<rect width="26" height="26" rx="13" fill="#F98600"/>
<path d="M11.632 15.374H13.954C13.684 12.872 17.608 12.566 17.608 9.92C17.608 7.526 15.7 6.32 13.09 6.32C11.164 6.32 9.58 7.184 8.446 8.516L9.922 9.884C10.804 8.948 11.686 8.462 12.802 8.462C14.206 8.462 15.07 9.074 15.07 10.154C15.07 11.9 11.254 12.548 11.632 15.374ZM12.802 20.162C13.72 20.162 14.386 19.514 14.386 18.578C14.386 17.624 13.72 16.976 12.802 16.976C11.902 16.976 11.218 17.624 11.218 18.578C11.218 19.514 11.884 20.162 12.802 20.162Z" fill="white"/>
</svg>
