<svg width="51" height="83" viewBox="0 0 51 83" fill="none" xmlns="http://www.w3.org/2000/svg">
<g clip-path="url(#clip0_124_2025)">
<path d="M30.54 43.1082C26.7142 44.4146 22.076 44.1176 18.7269 42.3993C18.551 41.7196 18.3753 41.0331 18.1997 40.34C18.645 40.1304 18.9596 39.9825 18.9818 39.9733C20.1412 39.5477 20.0949 38.7903 20.241 37.9431C20.3599 37.2878 20.4386 36.6257 20.4767 35.9605C19.0449 35.1908 17.783 34.1318 16.7684 32.8484C15.5728 31.3809 14.6745 29.6876 14.1253 27.8658C13.827 27.922 13.52 27.9106 13.2265 27.8322C12.9331 27.7538 12.6602 27.6105 12.4276 27.4124C11.4227 26.5762 11.005 25.41 10.7505 24.6476C10.3897 23.5709 10.3681 21.8311 10.9051 20.8867C11.064 20.6072 11.2945 20.3768 11.5721 20.22C11.8497 20.0632 12.164 19.9859 12.4814 19.9963C12.731 19.9855 12.9801 20.025 13.2146 20.1126C13.449 20.2001 13.664 20.334 13.8473 20.5065L14.0277 20.6817L14.3137 20.546C15.1106 20.1689 17.3283 19.191 17.6527 18.9969C18.5969 18.4338 19.5095 17.8174 20.386 17.1508C20.6877 17.0801 20.8539 17.0421 20.8539 17.0421C24.4159 16.2252 29.3926 13.3957 30.784 11.3477C31.3251 13.0694 31.6652 14.6269 33.4828 17.1167C34.8347 18.9686 36.6245 20.0361 37.425 20.7492C37.6057 20.5019 37.8438 20.3038 38.118 20.1725C38.3922 20.0411 38.694 19.9807 38.9968 19.9966C39.3142 19.9861 39.6285 20.0634 39.9061 20.2203C40.1837 20.3771 40.4142 20.6075 40.5731 20.887C41.1086 21.8314 41.0861 23.5712 40.7264 24.6479C40.4719 25.4102 40.0547 26.5765 39.0491 27.4127C38.8278 27.5999 38.5707 27.7385 38.294 27.8196C38.0174 27.9008 37.7272 27.9227 37.4418 27.8841L37.331 27.8653C37.1406 28.4299 36.9027 28.9317 36.8223 29.1797C36.4011 30.3415 33.996 34.535 31.003 35.9126C31.0403 36.5941 31.1181 37.2727 31.2362 37.9447C31.3815 38.7914 31.3349 39.5485 32.4949 39.9759C32.514 39.9825 32.7392 40.0896 33.0669 40.2465C32.8984 40.9157 32.7313 41.5728 32.5657 42.2178C31.917 42.5734 31.2393 42.8714 30.54 43.1082Z" fill="white"/>
<path d="M7.5254 82.2523C6.95739 82.2285 6.39495 82.1286 5.85265 81.9553C4.02041 81.3836 2.17889 79.6474 1.44661 77.8087C0.714334 75.9699 0.523406 73.8359 0.643734 71.8489C0.889079 67.1691 1.40054 62.5077 2.17554 57.888C2.59218 55.3407 2.91993 53.5716 3.36362 51.66C3.74754 50.0061 4.1817 48.6021 5.08559 47.1842C5.83152 46.014 6.88407 45.0922 7.97837 44.2709C10.4071 42.4475 13.119 41.7305 15.9765 40.7973L16.0576 40.7711C16.6812 40.3231 17.3285 39.9102 17.9966 39.5342C19.3202 44.8043 20.6118 49.5756 22.2199 54.3576C23.4685 58.0705 24.1344 59.5431 25.6659 63.3755C27.2237 59.4407 27.9789 58.0066 29.1634 54.2271C30.7251 49.2427 31.9248 44.8104 33.2463 39.5347C33.6328 39.7544 34.1131 40.0389 34.6266 40.367L36.1793 40.7981C37.9881 41.3002 39.8077 41.8064 41.5011 42.6246C43.1945 43.4427 44.7716 44.5993 45.8229 46.1772C46.3273 46.9709 46.7422 47.8198 47.0597 48.7079C47.7638 50.5552 48.2766 52.472 48.5899 54.4272C49.9104 61.064 50.5507 66.4172 50.34 72.406C50.2717 74.349 50.1027 76.3268 49.3665 78.1214C48.6304 79.9159 47.2423 81.5231 45.4093 82.0789C44.3578 82.4054 43.2428 82.4599 42.1653 82.2376C35.5898 82.236 14.0038 82.2523 7.5254 82.2523Z" fill="white"/>
<path d="M25.6801 43.9177C23.2773 43.9743 20.8953 43.4538 18.7275 42.3987C19.8071 46.5629 20.9087 50.456 22.2204 54.3572C23.4691 58.0702 24.1349 59.5428 25.6664 63.3752C27.2242 59.4404 27.9794 58.0063 29.1639 54.2268C30.454 50.1093 31.4971 46.3683 32.5651 42.2178C30.4371 43.3367 28.0759 43.9197 25.6801 43.9177Z" fill="white"/>
<path d="M16.1888 71.5833L16.378 71.3261C16.6117 71.0086 17.1896 70.1677 17.3055 70.0598C17.4577 69.932 17.6275 69.8275 17.8095 69.7497C18.5266 69.4805 19.4235 69.6122 20.0087 69.2487C21.0468 68.6034 21.0837 68.056 21.8479 67.2926C22.5031 63.7308 23.5245 58.1765 24.0135 55.5161C23.9664 55.5161 23.9192 55.5161 23.8723 55.5187C23.4944 55.5554 23.1235 55.6465 22.7708 55.7895C21.6263 56.2015 20.5135 56.6995 19.4416 57.2792C19.4313 57.274 19.421 57.2661 19.4107 57.2609C19.3717 57.2366 19.3314 57.2148 19.2898 57.1957C19.2787 57.188 19.2667 57.1818 19.254 57.1773C19.2189 57.1612 19.1828 57.1473 19.146 57.1357C19.1362 57.1302 19.1258 57.1258 19.1151 57.1226C19.0957 57.1153 19.0759 57.1092 19.0558 57.1043C19.0301 57.0964 19.0043 57.0885 18.9814 57.0833C18.9737 57.0807 18.9659 57.0807 18.9582 57.0781C18.9324 57.0728 18.9067 57.0676 18.8837 57.0624C18.8528 57.0571 18.8247 57.0545 18.7964 57.0519C18.7785 57.0488 18.7604 57.0471 18.7423 57.0466C18.7073 57.0422 18.6721 57.0405 18.6369 57.0414C18.5776 57.041 18.5184 57.0445 18.4596 57.0519C18.1748 57.0912 17.9068 57.2117 17.6866 57.3994C17.4012 57.6229 17.0464 57.735 16.6866 57.7155C16.3972 57.7141 16.1143 57.8035 15.8768 57.9717C15.6471 58.1429 15.3722 58.2403 15.0876 58.2514C15.0557 58.2515 15.0239 58.2541 14.9925 58.2592C14.8905 58.2716 14.7899 58.2934 14.6918 58.3244C14.5612 58.3667 14.4354 58.4228 14.3164 58.4918C14.0451 58.6518 13.8047 58.8607 13.6071 59.1083C13.2728 59.5579 12.9957 60.0487 12.7825 60.5689C11.621 63.0988 11.1214 63.9259 9.91113 66.4755C10.3359 67.564 10.9202 68.581 11.6442 69.492C12.1279 70.1549 12.7236 70.7252 13.4035 71.1765C14.0386 71.5607 15.271 71.6689 16.154 71.6322L16.1888 71.5833Z" fill="white"/>
<path d="M27.7553 60.9305C28.6236 61.4469 32.0668 63.5361 34.3324 64.9325L34.7073 62.8947C35.9332 63.4922 37.0709 64.2609 38.0873 65.1787C38.5221 65.6282 38.8465 66.1755 39.0342 66.7763C39.4269 67.9425 39.7745 69.6213 39.5539 71.1418L39.5282 71.3176C38.7144 73.076 37.5299 74.6309 36.0587 75.872C34.7425 75.8942 33.4271 75.7932 32.1291 75.5703C31.2144 75.3581 30.3547 74.9501 29.6074 74.3737C27.7974 73.1274 26.197 71.5925 24.8679 69.8282C24.7308 69.6347 24.6452 69.4084 24.6195 69.1713C24.6002 69.0547 24.608 68.935 24.6422 68.8219C24.6764 68.7088 24.7361 68.6055 24.8166 68.52L25.3083 68.0554C25.1168 67.9024 24.9821 67.7903 24.9251 67.7348C24.6657 67.5119 24.4617 67.23 24.3297 66.9119C24.2647 66.7065 24.2607 66.4862 24.3181 66.2784C24.3304 66.1704 24.3644 66.0662 24.4179 65.972C24.4714 65.8779 24.5432 65.7958 24.629 65.7309C24.7148 65.6661 24.8128 65.6197 24.9169 65.5947C25.021 65.5698 25.129 65.5667 25.2343 65.5857L25.6816 65.6548C25.1787 65.2793 24.8071 64.9983 24.6754 64.8909C24.6162 64.8429 24.5554 64.7908 24.4951 64.7358C24.1334 64.4267 23.8327 64.0507 23.609 63.6277C23.5151 63.418 23.4809 63.1857 23.5101 62.9573C23.5394 62.7288 23.6309 62.5131 23.7744 62.3348C24.1197 61.8688 24.7223 61.7133 25.5201 61.966C25.4758 61.7814 25.4808 61.5881 25.5348 61.4062C25.5887 61.2243 25.6895 61.0603 25.8267 60.9313C26.325 60.3713 27.2423 60.6298 27.6332 60.8587L27.7553 60.9305Z" fill="white"/>
<path d="M11.3989 42.3686C12.865 41.7623 14.3981 41.3121 15.9763 40.7972L16.0575 40.771C16.6811 40.323 17.3283 39.91 17.9964 39.534C18.0647 39.8056 18.1327 40.0709 18.2007 40.3399C18.6454 40.1304 18.9598 39.9829 18.9817 39.9748C20.1412 39.5495 20.0948 38.7921 20.2409 37.9449C20.3598 37.2896 20.4386 36.6275 20.4766 35.9623C19.0447 35.192 17.7828 34.1325 16.7684 32.8486C15.5727 31.3811 14.6744 29.6878 14.1252 27.866C13.8269 27.9222 13.52 27.9108 13.2265 27.8324C12.933 27.754 12.6601 27.6107 12.4275 27.4126C11.4226 26.5764 11.0049 25.4102 10.7504 24.6478C10.3896 23.5711 10.368 21.8314 10.905 20.887C11.0639 20.6075 11.2944 20.377 11.572 20.2202C11.8497 20.0634 12.1639 19.9861 12.4814 19.9965C12.7309 19.9857 12.9801 20.0252 13.2145 20.1128C13.4489 20.2003 13.664 20.3342 13.8472 20.5067L14.0276 20.6819L14.3136 20.5462C15.1106 20.1691 17.3283 19.1912 17.6527 18.9971C18.5969 18.434 19.5094 17.8176 20.3859 17.151C20.6877 17.0803 20.8539 17.0423 20.8539 17.0423C24.416 16.2254 29.3925 13.3959 30.7839 11.3479C31.325 13.0696 31.6651 14.6271 33.4827 17.1169C34.8347 18.9688 36.6244 20.0363 37.4249 20.7495C37.6056 20.5021 37.8437 20.3039 38.1179 20.1726C38.3921 20.0413 38.694 19.9809 38.9967 19.9968C39.3142 19.9863 39.6285 20.0636 39.9061 20.2204C40.1838 20.3772 40.4144 20.6077 40.5733 20.8872C41.1087 21.8316 41.0863 23.5714 40.7266 24.6481C40.4721 25.4104 40.0549 26.5767 39.0492 27.4129C38.8279 27.6001 38.5708 27.7387 38.2942 27.8198C38.0176 27.901 37.7274 27.9229 37.4419 27.8843L37.3311 27.8655C37.1407 28.4299 36.9029 28.9319 36.8225 29.1799C36.4012 30.3417 33.9962 34.5352 31.0032 35.9128C31.0404 36.5943 31.1183 37.2729 31.2364 37.9449C31.3817 38.7916 31.3351 39.5487 32.4951 39.9761C32.5141 39.9827 32.7393 40.0898 33.0668 40.2467C33.1266 40.011 33.1861 39.7739 33.2472 39.534C33.6337 39.7538 34.114 40.0382 34.6275 40.3664L36.1802 40.7974C37.6017 41.1653 39.0026 41.6112 40.3767 42.1331C42.4494 41.3639 44.0379 39.3334 44.0229 37.6395C44.0126 36.2433 43.7616 34.8598 43.2811 33.5518C42.6702 31.7541 41.4867 28.1017 41.4002 21.5765C41.5702 19.5848 41.3935 16.7071 41.3167 15.6011C41.0505 11.7669 39.3785 7.48566 36.9725 5.1058C36.4127 4.53364 35.8112 4.00536 35.173 3.52551L32.9635 2.20948L32.6028 1.99996C30.393 1.05709 28.0149 0.590164 25.6186 0.628666C20.807 0.628666 16.5243 3.16907 14.6238 5.03535C11.4711 8.12993 9.47057 13.7827 9.72385 21.5765C9.73786 23.9582 9.62949 26.3389 9.39919 28.709C9.27602 30.0684 9.04552 31.4155 8.70994 32.7373C8.26551 34.5072 8.01049 36.3207 7.94932 38.1463C7.93567 39.8871 9.25284 41.7426 11.3989 42.3686Z" fill="#F98600"/>
<path d="M24.869 69.8275C24.7318 69.634 24.6463 69.4078 24.6206 69.1707C24.6013 69.054 24.609 68.9344 24.6433 68.8213C24.6775 68.7082 24.7372 68.6048 24.8177 68.5194L25.3093 68.0548C25.1179 67.9018 24.9831 67.7897 24.9262 67.7342C24.6668 67.5113 24.4628 67.2294 24.3307 66.9113C24.2658 66.7059 24.2618 66.4855 24.3191 66.2778C24.3315 66.1698 24.3655 66.0655 24.419 65.9714C24.4724 65.8772 24.5443 65.7952 24.6301 65.7303C24.7159 65.6654 24.8139 65.6191 24.918 65.5941C25.0221 65.5691 25.1301 65.566 25.2354 65.5851L25.6827 65.6542C25.1797 65.2786 24.8082 64.9976 24.6765 64.8902C24.6173 64.8423 24.5564 64.7902 24.4962 64.7352C24.1345 64.4261 23.8338 64.0501 23.61 63.6271C23.5162 63.4174 23.482 63.1851 23.5112 62.9566C23.5405 62.7281 23.632 62.5125 23.7755 62.3341C24.1207 61.8682 24.7234 61.7126 25.5211 61.9654C25.4768 61.7808 25.4819 61.5875 25.5358 61.4056C25.5897 61.2236 25.6905 61.0597 25.8278 60.9306C26.3261 60.3707 27.2434 60.6292 27.6342 60.8581L27.7571 60.9306C28.6255 61.4471 32.0686 63.5362 34.3342 64.9327L34.336 64.9238L34.4102 64.5199L34.5535 63.7418L36.3471 53.9885C36.3783 53.8194 36.3763 53.6456 36.3414 53.4772C36.3064 53.3088 36.2392 53.1491 36.1435 53.0071C36.0477 52.8652 35.9254 52.7438 35.7835 52.6499C35.6416 52.5561 35.4829 52.4915 35.3164 52.4601L26.2063 50.7295C26.0398 50.6977 25.8689 50.6997 25.7032 50.7352C25.5375 50.7707 25.3803 50.839 25.2406 50.9363C25.1009 51.0336 24.9815 51.158 24.8891 51.3022C24.7967 51.4465 24.7333 51.6078 24.7023 51.777L21.2496 70.5551C21.2184 70.7243 21.2203 70.898 21.2552 71.0664C21.2902 71.2349 21.3574 71.3946 21.4531 71.5366C21.5489 71.6786 21.6712 71.8 21.8131 71.8939C21.955 71.9878 22.1138 72.0523 22.2803 72.0838L28.0568 73.1814C26.8687 72.1941 25.7988 71.0685 24.869 69.8275Z" fill="#F98600"/>
<path d="M10.3425 21.5755C10.1938 16.7752 10.7764 11.559 13.4465 7.46134C14.4848 5.90435 15.8569 4.60694 17.4596 3.6667C19.6767 2.29373 22.1835 1.4768 24.7726 1.28344C26.3233 1.18696 27.8796 1.30386 29.3995 1.63098C30.0555 1.77502 30.7024 1.95867 31.3369 2.18096C31.6517 2.29122 31.9619 2.41248 32.2719 2.53531C32.2977 2.54552 32.425 2.61388 32.3021 2.54683C32.3415 2.56857 32.3794 2.59214 32.4188 2.61466L32.6522 2.75033C33.3446 3.15208 33.9684 2.06651 33.2765 1.66476C32.3201 1.15182 31.2996 0.772983 30.2431 0.538602C28.8489 0.195718 27.4208 0.0157638 25.9865 0.00223602C23.103 -0.0143678 20.2609 0.70017 17.7176 2.08118C15.8347 3.04001 14.185 4.41206 12.8877 6.09816C11.597 7.89454 10.6501 9.92157 10.0964 12.0736C9.24818 15.152 9.00701 18.3898 9.1057 21.5752C9.13146 22.3822 10.3682 22.3858 10.3425 21.5752V21.5755Z" fill="#211715"/>
<path d="M42.0177 21.5754C42.1095 20.2296 42.1181 18.8793 42.0434 17.5325C42.0117 16.3825 41.9191 15.2352 41.7659 14.0953C41.371 11.2615 40.3243 8.56228 38.7108 6.21668C37.8079 4.97387 36.7191 3.88235 35.4841 2.98173C35.3422 2.8988 35.174 2.87597 35.0157 2.91817C34.8574 2.96037 34.7218 3.0642 34.6382 3.20722C34.559 3.35202 34.5379 3.52228 34.5793 3.68252C34.6206 3.84275 34.7212 3.98058 34.86 4.06729C36.8772 5.58927 38.4384 7.65132 39.3691 10.0231C39.8895 11.3075 40.2706 12.6458 40.5057 14.0142C40.6689 15.0885 40.7651 16.1723 40.7938 17.2591C40.8816 18.697 40.8773 20.1393 40.7809 21.5767C40.7822 21.743 40.8477 21.9021 40.9634 22.0197C41.0791 22.1373 41.2357 22.204 41.3993 22.2053C41.5622 22.2019 41.7176 22.1346 41.8329 22.0175C41.9482 21.9003 42.0144 21.7424 42.0177 21.5767V21.5754Z" fill="#211715"/>
<path d="M11.5611 41.7654C10.3065 41.3848 9.15993 40.4593 8.73659 39.1658C8.57247 38.5839 8.52542 37.9744 8.59823 37.3736C8.64641 36.6241 8.7335 35.8766 8.84996 35.1347C9.04218 33.9064 9.39621 32.7226 9.62476 31.5035C9.85724 30.2124 10.0229 28.9099 10.121 27.6012C10.2851 25.5969 10.3416 23.5842 10.3429 21.5734C10.3429 20.7646 9.10608 20.7633 9.10608 21.5734C9.10402 24.7685 9.02028 28.0296 8.43203 31.1685C8.19086 32.4562 7.82009 33.7058 7.62581 35.0055C7.50393 35.8206 7.40448 36.6411 7.35578 37.4642C7.28893 38.1485 7.3528 38.8395 7.54387 39.4992C7.83983 40.3367 8.32933 41.0897 8.97118 41.695C9.61303 42.3002 10.3885 42.7399 11.2323 42.9772C11.9965 43.209 12.3233 41.9961 11.5611 41.7649V41.7654Z" fill="#211715"/>
<path d="M36.9577 26.8546C36.8647 27.3724 36.7074 27.8761 36.4895 28.3537C36.4176 28.5315 36.3401 28.7075 36.2725 28.8869C36.2532 28.938 36.2354 28.9893 36.2169 29.0404C36.2097 29.0605 36.2009 29.0799 36.194 29.1001C36.154 29.2158 36.2411 28.9929 36.2092 29.0647C35.9747 29.5845 35.7079 30.0887 35.4104 30.574C34.5654 32.0209 33.4882 33.3138 32.2234 34.3993C31.5373 34.9937 30.7264 35.4203 29.8529 35.6465C29.0776 35.8298 29.4056 37.0411 30.1817 36.8588C32.0028 36.4311 33.5184 35.0794 34.7072 33.6741C35.7273 32.5069 36.5798 31.1988 37.2393 29.7889C37.6955 28.8631 38.0177 27.8751 38.1957 26.8556C38.1949 26.6892 38.1295 26.5298 38.0137 26.4121C37.8979 26.2944 37.7411 26.2279 37.5774 26.2271C37.4146 26.2311 37.2596 26.2986 37.1445 26.4156C37.0294 26.5326 36.963 26.6902 36.959 26.8556L36.9577 26.8546Z" fill="#211715"/>
<path d="M13.2488 26.9734C14.1045 30.7186 16.4129 34.3521 19.7465 36.2771C20.644 36.8061 21.6297 37.1623 22.6542 37.3278C22.8122 37.3667 22.9788 37.3429 23.1201 37.2613C23.2615 37.1797 23.3669 37.0464 23.4149 36.8886C23.4572 36.728 23.4358 36.5569 23.3551 36.4122C23.2744 36.2676 23.1409 36.161 22.9835 36.1155C19.3984 35.5734 16.6262 32.3442 15.2392 29.1281C14.8984 28.3254 14.631 27.4926 14.4405 26.64C14.2601 25.8525 13.0676 26.1859 13.248 26.9742L13.2488 26.9734Z" fill="#211715"/>
<path d="M14.2844 20.0615C13.8893 19.7034 13.3986 19.4724 12.8743 19.3978C12.35 19.3233 11.8158 19.4084 11.3391 19.6425C11.0007 19.8284 10.7074 20.0886 10.4805 20.4042C10.2535 20.7199 10.0987 21.083 10.0273 21.4671C9.83343 22.3831 9.82575 23.3297 10.0048 24.2488C10.1838 25.1679 10.5457 26.0401 11.0683 26.8119C11.8055 27.8988 12.8498 28.6787 14.1992 28.4915C14.3568 28.4463 14.4906 28.3398 14.5714 28.195C14.6523 28.0502 14.6738 27.8789 14.6313 27.7181C14.5839 27.5598 14.4786 27.4259 14.337 27.3442C14.1954 27.2626 14.0284 27.2393 13.8704 27.2792C12.9456 27.4075 12.2213 26.3981 11.8413 25.6863C11.4465 24.9686 11.2029 24.1753 11.126 23.3567C11.0837 22.8974 11.1023 22.4343 11.1811 21.9799C11.2141 21.7888 11.2643 21.6012 11.3314 21.4195C11.3675 21.3323 11.4106 21.2482 11.4602 21.1681C11.4695 21.1526 11.5661 21.0109 11.5236 21.0667C11.7176 20.8382 11.986 20.6882 12.2798 20.6443C12.4789 20.6057 12.684 20.6132 12.8798 20.6664C13.0756 20.7195 13.2571 20.8169 13.4107 20.9512C13.9997 21.4928 14.8771 20.6063 14.2852 20.0621L14.2844 20.0615Z" fill="#211715"/>
<path d="M38.0671 20.9499C38.3394 20.7168 38.6904 20.6006 39.0455 20.6259C39.4007 20.6512 39.7323 20.8161 39.9699 21.0855C39.8859 20.9808 40.0042 21.1442 40.0176 21.1667C40.0672 21.2468 40.1103 21.3309 40.1464 21.4181C40.2083 21.5853 40.2555 21.7577 40.2876 21.9333C40.3741 22.402 40.3957 22.8806 40.3518 23.3554C40.2763 24.1584 40.0402 24.9372 39.6579 25.6441C39.2789 26.3682 38.5471 27.4082 37.6072 27.2778C37.4491 27.2389 37.2824 27.2627 37.1409 27.3442C36.9995 27.4257 36.8938 27.5589 36.8455 27.7168C36.8031 27.8775 36.8246 28.0487 36.9054 28.1935C36.9862 28.3382 37.1198 28.4448 37.2773 28.4901C39.4768 28.7953 40.7558 26.6168 41.3353 24.7757C41.619 23.8208 41.6822 22.8123 41.52 21.8285C41.4794 21.4294 41.3589 21.0429 41.1658 20.6929C40.9726 20.343 40.7111 20.0369 40.3971 19.7936C39.908 19.4749 39.3294 19.3284 38.7503 19.3767C38.1713 19.425 37.6238 19.6653 37.1923 20.0607C36.5997 20.6047 37.4776 21.4915 38.0668 20.9499H38.0671Z" fill="#211715"/>
<path d="M23.8597 12.6247C22.816 14.1895 21.5105 15.5562 20.0025 16.6629C19.1925 17.2741 18.352 17.8423 17.4844 18.3653C17.0134 18.6308 16.5276 18.8681 16.0294 19.0761C15.353 19.3843 14.673 19.6847 14.0008 20.0019C13.8602 20.087 13.7582 20.2249 13.7167 20.3857C13.6752 20.5466 13.6975 20.7176 13.7789 20.8619C13.8642 21.0031 13.9998 21.1053 14.1575 21.1473C14.3151 21.1893 14.4826 21.1679 14.6251 21.0874C15.7261 20.5678 16.8925 20.1404 17.9549 19.5435C19.7403 18.5377 21.3841 17.2916 22.8417 15.839C23.6264 15.0577 24.3261 14.1928 24.9288 13.2593C25.3645 12.5784 24.2942 11.9498 23.861 12.6247H23.8597Z" fill="#211715"/>
<path d="M30.2894 10.9711C30.2585 11.0175 30.227 11.0636 30.1948 11.1089C30.1309 11.1995 30.2206 11.0804 30.1492 11.1694C30.0558 11.2848 29.9585 11.3969 29.8573 11.5057C29.6523 11.7233 29.4366 11.9303 29.2111 12.1259C28.6707 12.5892 28.0989 13.0133 27.4999 13.395C26.142 14.2815 24.7018 15.0305 23.2001 15.6313C22.384 15.9622 21.545 16.2311 20.6899 16.4359C19.9143 16.6166 20.2426 17.8289 21.0187 17.6482C22.663 17.2369 24.2538 16.6295 25.7579 15.8388C27.2372 15.1118 28.63 14.2155 29.9093 13.1674C30.4634 12.7206 30.9512 12.1949 31.3577 11.6065C31.8032 10.9334 30.7321 10.3033 30.2899 10.9722L30.2894 10.9711Z" fill="#211715"/>
<path d="M37.5267 20.0267C36.8844 19.5215 36.2227 19.0427 35.6095 18.4996C34.8008 17.7805 34.0892 16.9559 33.4933 16.0472C32.9848 15.2936 32.5512 14.4905 32.199 13.6497C31.9156 12.9547 31.7028 12.2329 31.4833 11.515C31.2478 10.745 30.0535 11.0737 30.2908 11.8492C30.8151 13.5636 31.433 15.1824 32.4253 16.6817C33.0465 17.6413 33.7848 18.517 34.6226 19.2879C35.2539 19.8585 36.049 20.4402 36.6522 20.9156C36.7707 21.0285 36.927 21.0914 37.0895 21.0914C37.2519 21.0914 37.4083 21.0285 37.5267 20.9156C37.6418 20.7972 37.7063 20.6375 37.7063 20.4711C37.7063 20.3047 37.6418 20.1451 37.5267 20.0267Z" fill="#211715"/>
<path d="M18.5137 40.8822C18.7355 40.7775 18.9574 40.6727 19.1803 40.5695C19.206 40.5572 19.2334 40.5457 19.2594 40.5334C19.3238 40.5025 19.0401 40.6238 19.2122 40.5564C19.3624 40.5001 19.5087 40.4337 19.6502 40.3577C20.0955 40.1104 20.4376 39.7077 20.6134 39.2239C20.7221 38.8699 20.7962 38.5058 20.8345 38.137C20.9463 37.464 21.0406 36.7888 21.0875 36.1071C21.0875 35.9404 21.0223 35.7805 20.9064 35.6626C20.7904 35.5447 20.6331 35.4785 20.4691 35.4785C20.3051 35.4785 20.1478 35.5447 20.0318 35.6626C19.9159 35.7805 19.8507 35.9404 19.8507 36.1071C19.8109 36.6674 19.7426 37.2253 19.6461 37.7785C19.6015 38.125 19.5362 38.4685 19.4506 38.807C19.4269 38.8879 19.4279 38.8656 19.458 38.8004C19.4395 38.8405 19.4214 38.879 19.4003 38.9188C19.3825 38.9515 19.3622 38.9824 19.3431 39.0141C19.2741 39.1275 19.3642 39.0063 19.3292 39.0325C19.3001 39.0597 19.2726 39.0887 19.2467 39.1192C19.2303 39.1349 19.1066 39.2286 19.2153 39.1514C19.1293 39.2126 19.0389 39.2671 18.9448 39.3145C18.8417 39.3669 18.828 39.3625 18.6637 39.4353C18.6217 39.4539 18.5799 39.473 18.5384 39.4921C18.3215 39.5921 18.1056 39.6945 17.8896 39.7967C17.749 39.8817 17.6468 40.0196 17.6053 40.1805C17.5638 40.3414 17.5863 40.5125 17.6678 40.6568C17.7531 40.7978 17.8887 40.9 18.0462 40.942C18.2038 40.984 18.3713 40.9626 18.5137 40.8822Z" fill="#211715"/>
<path d="M30.3833 35.9134C30.4246 36.594 30.5008 37.272 30.6116 37.9445C30.655 38.333 30.7245 38.718 30.8198 39.0968C30.9567 39.5569 31.2419 39.9567 31.6296 40.2319C31.7167 40.2947 31.8084 40.3505 31.9041 40.3987C31.953 40.4233 32.0027 40.4456 32.0527 40.4676C32.1493 40.4965 32.2428 40.5351 32.3318 40.5828C32.3282 40.575 32.1357 40.4922 32.2573 40.553C32.2967 40.5726 32.3374 40.5904 32.3774 40.6093C32.5028 40.669 32.6282 40.729 32.7536 40.7892C32.8962 40.8688 33.0634 40.8897 33.2207 40.8478C33.3781 40.8059 33.5136 40.7042 33.5995 40.5637C33.6809 40.4194 33.7032 40.2484 33.6617 40.0875C33.6202 39.9266 33.5182 39.7888 33.3776 39.7036C33.1996 39.6182 33.0226 39.5305 32.8425 39.4493C32.6697 39.3857 32.5033 39.3054 32.3454 39.2097C32.3323 39.201 32.2117 39.112 32.2748 39.1628C32.338 39.2136 32.2321 39.122 32.221 39.1104C32.1862 39.0764 32.1555 39.04 32.1228 39.0036C32.1743 39.0604 32.1627 39.0638 32.1246 38.9996C32.1053 38.9672 32.0854 38.9355 32.0677 38.902C32.0584 38.8841 32.0038 38.7663 32.0419 38.8553C32.08 38.9444 32.0321 38.8244 32.0257 38.8051C32.0115 38.7621 31.9999 38.7189 31.9873 38.6741C31.8994 38.341 31.867 37.9916 31.8108 37.6527C31.7167 37.0769 31.6529 36.4964 31.6196 35.9137C31.616 35.7481 31.5498 35.5904 31.4345 35.4732C31.3193 35.3561 31.1641 35.2888 31.0012 35.2852C30.8377 35.2867 30.6812 35.3534 30.5656 35.4709C30.4499 35.5885 30.3843 35.7475 30.3828 35.9137L30.3833 35.9134Z" fill="#211715"/>
<path d="M23.5196 31.4028C24.2435 31.7833 25.0497 31.9731 25.8644 31.9547C26.7094 31.9909 27.5423 31.7409 28.2323 31.2439C28.3475 31.1256 28.4121 30.9659 28.4121 30.7994C28.4121 30.633 28.3475 30.4733 28.2323 30.355C28.1144 30.2409 27.9578 30.1772 27.7951 30.1772C27.6323 30.1772 27.4757 30.2409 27.3578 30.355C27.5459 30.206 27.4021 30.3183 27.3539 30.3497C27.3057 30.3812 27.2586 30.4087 27.2091 30.4349C27.1834 30.4485 27.1576 30.4611 27.1318 30.4742C27.0375 30.5234 27.1344 30.448 27.1576 30.465C27.089 30.4833 27.0223 30.5079 26.9582 30.5386C26.7758 30.597 26.5891 30.6404 26.3998 30.6682C26.492 30.6541 26.389 30.6682 26.3483 30.6724C26.2935 30.678 26.2386 30.6826 26.1836 30.6863C26.0517 30.6949 25.9193 30.6983 25.7868 30.6975C25.6683 30.6975 25.5498 30.6928 25.4315 30.6845C25.3771 30.6808 25.323 30.6763 25.2687 30.6708C25.2607 30.6708 25.0625 30.6415 25.1932 30.6625C25.0169 30.635 24.8426 30.5957 24.6714 30.5449C24.5985 30.5226 24.5271 30.4959 24.455 30.471C24.2978 30.4163 24.5488 30.5197 24.4068 30.4519C24.3175 30.4089 24.2291 30.3641 24.1416 30.3173C24.0715 30.2756 23.994 30.2484 23.9135 30.2372C23.8331 30.226 23.7512 30.231 23.6726 30.2519C23.594 30.2728 23.5203 30.3093 23.4556 30.3592C23.3909 30.4091 23.3365 30.4715 23.2955 30.5428C23.2545 30.614 23.2277 30.6928 23.2167 30.7746C23.2056 30.8564 23.2106 30.9396 23.2312 31.0195C23.2518 31.0994 23.2876 31.1743 23.3367 31.2401C23.3858 31.3059 23.4472 31.3612 23.5173 31.4028H23.5196Z" fill="#211715"/>
<path d="M25.5448 25.7953C25.6524 26.1906 25.7384 26.5917 25.8025 26.9966L25.7806 26.8295C25.7882 26.8844 25.7897 26.94 25.785 26.9953L25.8071 26.8282C25.8034 26.8535 25.7974 26.8784 25.7891 26.9026L25.8515 26.7525C25.8445 26.7693 25.8358 26.7854 25.8257 26.8004L25.9226 26.6734C25.9111 26.6877 25.8982 26.7006 25.8839 26.7119L26.0091 26.6137C25.9791 26.6327 25.9477 26.6495 25.9154 26.664L26.0633 26.6006C26.0127 26.6227 25.9596 26.6385 25.9053 26.6475L26.0697 26.625C26.0205 26.631 25.9707 26.631 25.9215 26.625L26.0862 26.6475C26.0303 26.6396 25.9754 26.6258 25.9195 26.6182C25.8398 26.592 25.7546 26.5881 25.6729 26.6069C25.5911 26.6104 25.5117 26.6362 25.4431 26.6815C25.3015 26.7657 25.1986 26.9035 25.1569 27.0647C25.1153 27.226 25.1385 27.3974 25.2212 27.5414C25.2604 27.6123 25.3133 27.6745 25.3768 27.724C25.4403 27.7735 25.5131 27.8094 25.5907 27.8294C25.7195 27.847 25.8435 27.8802 25.9738 27.886C26.1709 27.8872 26.3653 27.8403 26.5407 27.749C26.6517 27.6976 26.75 27.6217 26.8285 27.5268C26.9069 27.4319 26.9635 27.3204 26.9942 27.2004C27.0342 27.0057 27.0322 26.8044 26.9885 26.6106C26.9241 26.2237 26.836 25.8401 26.7381 25.4606C26.6945 25.2998 26.5898 25.1633 26.4472 25.081C26.3046 24.9987 26.1356 24.9773 25.9775 25.0216C25.8193 25.066 25.685 25.1723 25.604 25.3173C25.523 25.4623 25.502 25.634 25.5456 25.7948L25.5448 25.7953Z" fill="#211715"/>
<path d="M19.3124 22.3922C19.1155 23.0422 19.2438 24.5374 20.4554 24.6646C22.0565 24.655 22.1418 22.8471 21.6027 21.997C21.1614 21.3006 19.8638 21.0112 19.3124 22.3922Z" fill="#211715"/>
<path d="M32.1669 22.3922C32.3637 23.0422 32.2354 24.5376 31.0239 24.6646C29.4227 24.655 29.3375 22.8471 29.8765 21.997C30.3176 21.3006 31.6165 21.0112 32.1669 22.3922Z" fill="#211715"/>
<path d="M40.7831 21.5743C40.7895 24.7528 41.1579 27.9199 41.8807 31.0123C42.0881 31.8504 42.3345 32.679 42.6091 33.4977C42.8751 34.2467 43.0869 35.0145 43.243 35.7948C43.3734 36.509 43.4991 37.4076 43.3664 38.0807C43.0541 39.662 41.6565 40.9757 40.2141 41.5246C40.0585 41.5728 39.9269 41.6798 39.8465 41.8236C39.7662 41.9675 39.7432 42.1372 39.7823 42.2977C39.827 42.4578 39.9318 42.5936 40.0741 42.6758C40.2164 42.7579 40.3848 42.7799 40.5429 42.737C42.0822 42.1508 43.4916 40.9909 44.1999 39.458C44.9363 37.8643 44.6328 35.9748 44.1742 34.3387C43.8977 33.3521 43.5336 32.3941 43.2628 31.4054C42.9348 30.1978 42.6766 28.9717 42.4898 27.7334C42.1918 25.694 42.0347 23.636 42.0196 21.5743C42.008 20.7661 40.7712 20.7638 40.7828 21.5743H40.7831Z" fill="#211715"/>
<path d="M10.5847 61.3702C10.1555 58.6182 9.6806 55.8612 9.42526 53.0856C9.42102 52.9202 9.35451 52.7629 9.23945 52.6459C9.12438 52.5289 8.96954 52.4613 8.80687 52.457C8.64321 52.4582 8.48659 52.5248 8.37087 52.6424C8.25514 52.76 8.18962 52.9192 8.18848 53.0856C8.45464 55.9727 8.94601 58.8418 9.39254 61.7044C9.43707 61.8645 9.54185 62.0004 9.6842 62.0826C9.82656 62.1648 9.99503 62.1867 10.1532 62.1436C10.3091 62.0958 10.441 61.9888 10.5215 61.8448C10.6019 61.7008 10.6248 61.5308 10.5853 61.3702H10.5847Z" fill="#211715"/>
<path d="M41.8748 65.5684C42.4623 61.7895 42.7735 57.9472 43.0394 54.1329C43.0394 53.9662 42.9743 53.8064 42.8583 53.6885C42.7423 53.5706 42.5851 53.5044 42.421 53.5044C42.257 53.5044 42.0997 53.5706 41.9838 53.6885C41.8678 53.8064 41.8027 53.9662 41.8027 54.1329C41.545 57.8233 41.2373 61.6643 40.6823 65.2343C40.6437 65.3948 40.6669 65.5643 40.7471 65.708C40.8274 65.8518 40.9587 65.9588 41.1142 66.0074C41.2723 66.0505 41.4407 66.0286 41.5831 65.9465C41.7254 65.8643 41.8302 65.7285 41.8748 65.5684Z" fill="#211715"/>
<path d="M18.2816 57.0321C17.0601 54.9938 15.8596 52.9421 14.7001 50.8658C14.4253 50.3729 14.1529 49.8784 13.8828 49.3824C13.7509 49.1395 13.6197 48.8963 13.4891 48.6527C13.3586 48.4683 13.252 48.2675 13.1719 48.0554C13.1812 48.1033 13.1281 48.1378 13.2531 48.0056C13.3428 47.9108 13.4402 47.8223 13.5365 47.7356C13.7133 47.5769 13.8973 47.4292 14.0879 47.288C14.5311 46.9601 14.9897 46.6542 15.4309 46.3242C15.5219 46.267 15.5969 46.1871 15.649 46.0921C15.7011 45.9971 15.7284 45.8902 15.7284 45.7814C15.7284 45.6727 15.7011 45.5657 15.649 45.4707C15.5969 45.3757 15.5219 45.2959 15.4309 45.2386C15.0513 44.9917 14.6787 44.7337 14.3044 44.4791C14.1145 44.3498 13.9243 44.2206 13.7321 44.0947C13.6551 44.044 13.5778 43.9941 13.5002 43.9449C13.4384 43.9056 13.2459 43.7194 13.3198 43.8543L13.4043 44.1714L13.4085 44.0612L13.324 44.3783C13.7527 43.3784 14.7236 42.594 15.5522 41.9293C16.4196 41.2351 17.3422 40.6152 18.3105 40.0761L17.4022 39.7003C18.4669 43.9868 19.6122 48.2578 20.9516 52.4647C21.3258 53.6407 21.7162 54.8116 22.1226 55.9772C22.1697 56.1357 22.2749 56.2697 22.4165 56.3515C22.5581 56.4333 22.7252 56.4565 22.8832 56.4164C23.0406 56.3708 23.1741 56.2642 23.2548 56.1195C23.3356 55.9749 23.3572 55.8038 23.3151 55.643C21.8748 51.5313 20.664 47.3388 19.5571 43.122C19.2292 41.8722 18.9084 40.6203 18.5947 39.3661C18.5683 39.2741 18.5218 39.1893 18.4587 39.1181C18.3955 39.0469 18.3173 38.9912 18.2299 38.9551C18.1426 38.9189 18.0483 38.9034 17.9542 38.9095C17.8601 38.9157 17.7685 38.9434 17.6864 38.9906C16.1722 39.8171 14.7748 40.8478 13.5321 42.0548C13.2267 42.3574 12.944 42.6829 12.6865 43.0285C12.433 43.369 12.1111 43.8074 12.1786 44.2544C12.2632 44.8146 12.9743 45.087 13.3938 45.3688C13.8661 45.6862 14.3314 46.0141 14.8083 46.3245V45.2389C14.3234 45.6014 13.8174 45.9337 13.3353 46.3001C12.9073 46.6251 12.3683 46.9934 12.0946 47.4729C11.7355 48.103 12.0946 48.6758 12.3946 49.2357C12.6856 49.7794 12.9801 50.3213 13.2783 50.8613C14.5453 53.1563 15.8676 55.4196 17.2147 57.667C17.6269 58.3568 18.698 57.7259 18.2824 57.0324L18.2816 57.0321Z" fill="#211715"/>
<path d="M30.6066 51.6199C31.7877 47.6768 32.8483 43.697 33.8429 39.701L32.9346 40.0768C33.9024 40.6217 34.8371 41.2252 35.7338 41.8839C36.5411 42.4847 37.5009 43.2135 37.9021 44.1577L37.8176 43.8405L37.8227 43.9495L37.9072 43.6323C37.9874 43.4848 37.8356 43.6501 37.7784 43.687C37.6869 43.7449 37.5962 43.8038 37.5058 43.863C37.3174 43.9869 37.1306 44.1134 36.9443 44.2404C36.5772 44.4908 36.2116 44.7435 35.8395 44.986C35.7485 45.0433 35.6734 45.1231 35.6213 45.2181C35.5692 45.3131 35.5419 45.4201 35.5419 45.5288C35.5419 45.6376 35.5692 45.7445 35.6213 45.8395C35.6734 45.9345 35.7485 46.0144 35.8395 46.0716C36.3574 46.4579 36.9072 46.8049 37.4112 47.2111C37.661 47.3738 37.8815 47.5789 38.0631 47.8174C38.0425 47.7794 38.0631 47.726 38.0435 47.7758C38.0087 47.8519 37.9695 47.9259 37.926 47.9973C37.8414 48.1571 37.7562 48.3167 37.6704 48.4761C36.9468 49.8243 36.2018 51.16 35.4357 52.4831C35.0327 53.1829 36.1013 53.8162 36.5035 53.1177C37.3857 51.5851 38.27 50.0464 39.0781 48.4719C39.1906 48.2937 39.2579 48.0899 39.2739 47.8788C39.2899 47.6676 39.254 47.4558 39.1695 47.2622C38.9748 46.9331 38.716 46.6479 38.4089 46.4241C37.7926 45.9003 37.1108 45.4677 36.4646 44.9855V46.0711C36.9322 45.7665 37.3891 45.4454 37.8521 45.1338C38.2406 44.8719 38.9041 44.6157 39.0394 44.116C39.1605 43.6692 38.8371 43.2177 38.5854 42.8801C38.3295 42.5393 38.045 42.2218 37.7351 41.931C36.462 40.7879 35.061 39.8011 33.561 38.9907C33.4789 38.9434 33.3874 38.9157 33.2932 38.9095C33.1991 38.9033 33.1048 38.9189 33.0174 38.955C32.93 38.9912 32.8518 39.0469 32.7887 39.1181C32.7255 39.1894 32.679 39.2742 32.6527 39.3662C31.6584 43.3623 30.5973 47.3421 29.4165 51.2852C29.1846 52.0609 30.3775 52.3925 30.6089 51.6194L30.6066 51.6199Z" fill="#211715"/>
<path d="M18.7643 43.1135C22.1157 44.6788 26.0633 44.9467 29.6284 44.0346C30.6534 43.772 31.647 43.3961 32.5915 42.9136C33.3026 42.5501 32.677 41.4653 31.9672 41.8281C28.9487 43.3706 25.2813 43.6593 22.008 42.9087C21.1072 42.7085 20.2294 42.4134 19.3888 42.0282C19.2462 41.9487 19.079 41.9278 18.9216 41.9697C18.7642 42.0117 18.6286 42.1133 18.5427 42.2536C18.4612 42.3979 18.4388 42.5689 18.4804 42.7297C18.5219 42.8906 18.6239 43.0284 18.7645 43.1135H18.7643Z" fill="#211715"/>
<path d="M15.812 40.1909C13.6812 40.8847 11.5073 41.5028 9.51476 42.5598C7.54776 43.6032 5.60988 45.1222 4.43133 47.06C3.30689 48.9092 2.83768 51.0495 2.40378 53.1517C1.97863 55.2123 1.638 57.2913 1.31799 59.3713C0.700883 63.3814 0.301248 67.4123 0.0492536 71.4623C-0.0963259 73.8055 0.0371435 76.2875 1.04899 78.4408C1.51522 79.4058 2.16548 80.2669 2.96199 80.9742C3.75849 81.6815 4.68536 82.2209 5.68872 82.561C6.69566 82.8817 7.76271 82.957 8.80361 82.781C9.7887 82.5845 10.7312 82.2102 11.5864 81.6757C12.3073 81.2696 12.9905 80.7976 13.6273 80.2657L14.928 79.1304L15.2532 78.8465C15.3678 78.7279 15.4321 78.5683 15.4321 78.402C15.4321 78.2358 15.3678 78.0762 15.2532 77.9576C15.1356 77.8428 14.9789 77.7786 14.8159 77.7786C14.6529 77.7786 14.4962 77.8428 14.3787 77.9576L13.4153 78.7985L12.7989 79.3365C12.7433 79.3849 12.6892 79.436 12.6317 79.4824C12.6206 79.4913 12.6106 79.5017 12.5992 79.5106C12.6211 79.4936 12.6765 79.4491 12.5835 79.514C12.5062 79.5664 12.4302 79.6238 12.3532 79.6782C10.833 80.752 9.17542 81.7632 7.25351 81.6058C5.34371 81.4487 3.6014 80.1973 2.56121 78.5992C1.40688 76.8259 1.17704 74.5005 1.23708 72.4253C1.29995 70.2499 1.50917 68.0647 1.72226 65.8996C1.89249 64.171 2.10403 62.4482 2.35688 60.731C2.64521 58.7668 2.96188 56.8044 3.32801 54.853C3.68874 52.9288 4.02937 50.9154 4.78046 49.1023C5.16935 48.1382 5.72146 47.2508 6.41173 46.4804C7.14178 45.6974 7.95999 45.0046 8.84947 44.4161C10.6049 43.2355 12.5902 42.5425 14.5838 41.9019C15.103 41.7353 15.6229 41.5709 16.1416 41.402C16.8965 41.1563 16.5737 39.9421 15.8126 40.1899L15.812 40.1909Z" fill="#211715"/>
<path d="M7.53287 82.8819C11.7828 82.8819 16.0326 82.8801 20.2823 82.8764C25.5247 82.8734 30.767 82.8703 36.0093 82.867L42.1628 82.8636C42.9587 82.8636 42.96 81.6064 42.1628 81.6064C37.8885 81.6082 33.6142 81.6107 29.3399 81.614C24.1046 81.6172 18.8691 81.6202 13.6336 81.6229C11.6001 81.624 9.56652 81.6246 7.53287 81.6248C6.73721 81.6248 6.73567 82.8819 7.53287 82.8819Z" fill="#211715"/>
<path d="M36.0142 41.4032C39.2775 42.3091 42.9871 43.3216 45.1082 46.2345C46.1883 47.7181 46.783 49.5799 47.2774 51.3357C47.8185 53.2567 48.138 55.245 48.49 57.2087C49.1492 60.7353 49.5601 64.3052 49.7193 67.8913C49.7853 69.6722 49.783 71.4599 49.6853 73.2392C49.5869 75.0335 49.3483 76.9016 48.5044 78.5089C47.7121 80.0187 46.4606 81.2064 44.7923 81.593C42.834 82.0461 40.8701 81.406 39.3376 80.1363C39.2194 80.0228 39.0629 79.9595 38.9003 79.9595C38.7377 79.9595 38.5812 80.0228 38.463 80.1363C38.3483 80.2548 38.2839 80.4144 38.2839 80.5807C38.2839 80.747 38.3483 80.9067 38.463 81.0252C39.9791 82.2823 41.8356 83.0999 43.8206 82.9894C44.6945 82.9539 45.5525 82.7414 46.3445 82.3644C47.1365 81.9874 47.8465 81.4534 48.4328 80.7939C50.9886 77.8997 51.0074 73.6845 50.9978 70.0153C50.9612 66.1926 50.6208 62.3792 49.9801 58.6123C49.6477 56.5716 49.3009 54.5149 48.8482 52.498C48.4344 50.4921 47.7663 48.5493 46.8605 46.7182C45.0381 43.2174 41.3442 41.6348 37.7854 40.5974C37.3056 40.4575 36.8241 40.3237 36.3425 40.1901C35.5736 39.9767 35.2456 41.189 36.0137 41.4022L36.0142 41.4032Z" fill="#211715"/>
<path d="M24.0142 54.8901C23.2258 54.8684 22.4384 55.2306 21.721 55.5218C20.9449 55.8361 20.185 56.1867 19.4412 56.5736C19.2996 56.6577 19.1966 56.7955 19.155 56.9568C19.1134 57.1181 19.1365 57.2896 19.2192 57.4335C19.302 57.5775 19.4376 57.6821 19.5963 57.7244C19.755 57.7667 19.9237 57.7432 20.0653 57.6591C20.7125 57.32 21.3732 57.0073 22.0493 56.7338C22.6563 56.4887 23.3945 56.1302 24.0145 56.1472C24.1785 56.1472 24.3358 56.081 24.4518 55.9631C24.5677 55.8452 24.6329 55.6853 24.6329 55.5186C24.6329 55.3519 24.5677 55.1921 24.4518 55.0742C24.3358 54.9563 24.1785 54.8901 24.0145 54.8901H24.0142Z" fill="#211715"/>
<path d="M16.9125 71.6438C17.046 71.4605 17.1756 71.2772 17.3065 71.0917C17.381 70.987 17.4557 70.8822 17.5306 70.7775L17.6337 70.6376C17.6757 70.5805 17.7239 70.5276 17.6517 70.613C17.6811 70.5782 17.7958 70.4532 17.6924 70.5425C17.7461 70.4993 17.8031 70.4604 17.8627 70.4263C17.8481 70.4354 18.0542 70.3199 17.9756 70.3553C18.2663 70.2488 18.5711 70.187 18.8797 70.172C19.219 70.148 19.5547 70.0872 19.8813 69.9907C20.2345 69.8563 20.5619 69.6601 20.8485 69.4109C21.0643 69.2343 21.2593 69.0332 21.4298 68.8114C21.5277 68.6859 21.6213 68.5576 21.7133 68.4285C21.7926 68.3182 21.8679 68.214 21.9153 68.1522C22.0267 68.0319 22.0888 67.873 22.0888 67.7078C22.0888 67.5426 22.0267 67.3836 21.9153 67.2633C21.7987 67.1465 21.6417 67.0811 21.478 67.0811C21.3144 67.0811 21.1573 67.1465 21.0408 67.2633C20.6646 67.7442 20.4739 68.1276 20.0006 68.4995C19.7788 68.6894 19.511 68.8154 19.225 68.8643C18.9143 68.9258 18.5633 68.9468 18.2299 68.9994C17.6614 69.0578 17.1343 69.3284 16.7507 69.7589C16.4345 70.1649 16.1488 70.5944 15.8447 71.0098C15.7631 71.154 15.7406 71.3251 15.7821 71.4861C15.8236 71.647 15.9258 71.7849 16.0666 71.8698C16.2091 71.9501 16.3765 71.9714 16.5341 71.9294C16.6917 71.8874 16.8273 71.7853 16.9127 71.6443L16.9125 71.6438Z" fill="#211715"/>
<path d="M20.2217 57.1357C19.9032 56.7781 19.4765 56.5386 19.0091 56.4551C18.5417 56.3716 18.0602 56.4489 17.6409 56.6748C17.4679 56.8035 17.2872 56.9211 17.0998 57.027C16.8399 57.0855 16.575 57.1182 16.3088 57.1247C16.0442 57.1768 15.7918 57.2801 15.5654 57.4288C15.3674 57.5524 15.1428 57.6253 14.911 57.6414C13.7342 57.7926 12.9589 58.7794 12.4632 59.7932C12.0045 60.7318 11.5807 61.6875 11.1166 62.6238C10.6356 63.5946 10.145 64.5618 9.67372 65.5366C9.59503 65.6815 9.57417 65.8516 9.61547 66.0117C9.65676 66.1718 9.75705 66.3097 9.89556 66.3967C10.0375 66.4793 10.2057 66.5019 10.3639 66.4597C10.5221 66.4175 10.6577 66.3139 10.7415 66.1712C11.5042 64.5909 12.3148 63.0352 13.0573 61.4447C13.4474 60.609 13.7907 59.519 14.6291 59.0353C14.7875 58.9475 14.9621 58.894 15.1418 58.8781C15.4261 58.8528 15.7037 58.7766 15.9617 58.6529C16.1376 58.529 16.3294 58.4302 16.5317 58.3593C16.7636 58.315 17.006 58.3386 17.241 58.2902C17.5157 58.2328 17.7746 58.1147 17.9993 57.9442C18.1654 57.7938 18.373 57.6991 18.594 57.6731C18.7381 57.6679 18.8813 57.6971 19.0122 57.7584C19.1431 57.8198 19.258 57.9115 19.3477 58.0262C19.881 58.6285 20.7535 57.7381 20.2222 57.1373L20.2217 57.1357Z" fill="#211715"/>
<path d="M20.7082 60.8337C20.9949 61.4294 21.2127 62.0568 21.3573 62.7034C21.4316 63.005 21.4791 63.3127 21.4992 63.6229C21.4719 63.8657 21.415 64.104 21.3297 64.3324C21.2524 64.6069 21.1661 64.88 21.0628 65.1443C21.006 65.3209 20.9181 65.4856 20.8033 65.6301C20.5456 65.8643 19.912 65.8166 19.8115 65.4748C19.584 64.7017 18.39 65.0312 18.6188 65.809C18.8994 66.7623 19.9844 67.2062 20.8863 66.9634C21.7427 66.7324 22.0826 65.9944 22.3518 65.2129C22.467 64.8798 22.564 64.5405 22.6422 64.1965C22.7269 63.7588 22.7269 63.3085 22.6422 62.8708C22.4869 61.9412 22.1948 61.0406 21.7757 60.1994C21.6918 60.0568 21.5562 59.9534 21.3981 59.9113C21.24 59.8692 21.0719 59.8919 20.9301 59.9744C20.791 60.0609 20.6902 60.1988 20.6488 60.3591C20.6075 60.5194 20.6288 60.6898 20.7082 60.8345V60.8337Z" fill="#211715"/>
<path d="M18.1328 61.423C18.283 61.7896 18.4564 62.1411 18.6265 62.4968C18.689 62.6199 18.7429 62.7474 18.7878 62.8783C18.8174 62.9661 18.8378 63.0551 18.8625 63.1439C18.8937 63.256 18.8731 63.1214 18.8792 63.2463C18.8767 63.5703 18.8329 63.8926 18.7489 64.2051C18.7159 64.3633 18.6804 64.521 18.6424 64.6781C18.6244 64.7517 18.6061 64.825 18.5829 64.897C18.5737 64.9272 18.5633 64.9568 18.5523 64.9864C18.5767 64.9311 18.5739 64.9366 18.5432 65.0029C18.5175 65.0537 18.4866 65.1029 18.4595 65.1537C18.4183 65.2134 18.4183 65.2154 18.4595 65.1597C18.4373 65.1859 18.4139 65.2134 18.3894 65.2383C18.3482 65.2802 18.2712 65.3232 18.359 65.2708C18.3317 65.2894 18.3034 65.3065 18.2742 65.3218C18.3483 65.2944 18.3524 65.2927 18.2866 65.3166C18.2464 65.3266 18.1178 65.3376 18.2552 65.3342C18.223 65.3342 18.0148 65.3169 18.1521 65.3428C18.041 65.3283 17.9345 65.2891 17.8401 65.2278C17.811 65.2105 17.7017 65.1131 17.7983 65.2063C17.7607 65.1699 17.6695 65.0269 17.7419 65.1582C17.7198 65.1181 17.6963 65.0796 17.6765 65.0385C17.7481 65.1898 17.679 65.001 17.6693 64.963C17.6378 64.8379 17.6641 65.0725 17.6667 64.9245C17.6667 64.8583 17.6628 64.792 17.6646 64.7255C17.6664 64.6527 17.6713 64.5802 17.6775 64.5079C17.6814 64.4633 17.6857 64.4188 17.6909 64.3746C17.7005 64.2976 17.7021 64.2824 17.6955 64.329C17.7336 64.1685 17.7101 63.9993 17.6299 63.8557C17.5497 63.7121 17.4188 63.6049 17.2637 63.5559C17.1056 63.5127 16.9371 63.5345 16.7948 63.6167C16.6524 63.6988 16.5476 63.8347 16.5031 63.9948C16.4227 64.5917 16.3286 65.2807 16.687 65.8113C16.8773 66.0817 17.1355 66.2951 17.4346 66.4293C17.7338 66.5635 18.0629 66.6136 18.3876 66.5742C19.0655 66.4802 19.5152 65.942 19.744 65.3205C19.8395 65.03 19.9126 64.7322 19.9625 64.4301C20.0549 64.0652 20.1072 63.691 20.1183 63.3144C20.0967 62.4902 19.6254 61.8216 19.3245 61.0883C19.2764 60.9305 19.1709 60.7972 19.0296 60.7156C18.8882 60.634 18.7216 60.6102 18.5636 60.6491C18.406 60.6943 18.2723 60.8009 18.1915 60.9456C18.1106 61.0904 18.0892 61.2617 18.1318 61.4225L18.1328 61.423Z" fill="#211715"/>
<path d="M9.13407 66.0211C9.36976 66.9349 9.75146 67.8031 10.2639 68.5911C10.7399 69.3824 11.3012 70.1172 11.9374 70.7819C12.525 71.4377 13.2936 71.8981 14.1428 72.1029C14.9437 72.2705 15.765 72.3137 16.5787 72.231C16.7413 72.2265 16.8961 72.1588 17.0111 72.0419C17.1261 71.925 17.1927 71.7677 17.1971 71.6024C17.196 71.4361 17.1305 71.2769 17.0147 71.1592C16.899 71.0416 16.7424 70.975 16.5787 70.9738C15.9062 71.0497 15.2264 71.0277 14.5599 70.9084C13.8486 70.7592 13.2064 70.3736 12.7347 69.8123C12.1804 69.2191 11.6914 68.5662 11.2765 67.8651C10.8463 67.1959 10.5256 66.4604 10.3268 65.6869C10.1498 64.8986 8.95706 65.2323 9.13407 66.0211Z" fill="#211715"/>
<path d="M34.3961 63.4369C35.1244 63.8074 35.8277 64.2265 36.5015 64.6914C37.0668 65.0924 37.7025 65.5397 38.0665 66.1452C38.4356 66.8238 38.6882 67.5613 38.8138 68.326C39.0098 69.194 39.0591 70.0896 38.9596 70.9743C38.9215 71.1349 38.9449 71.3042 39.0251 71.4478C39.1053 71.5914 39.2363 71.6987 39.3914 71.7477C39.5496 71.7909 39.7181 71.769 39.8604 71.6868C40.0028 71.6046 40.1076 71.4687 40.1521 71.3085C40.2842 70.2771 40.2494 69.2306 40.049 68.2105C39.9069 67.2976 39.6155 66.4152 39.1869 65.6C38.7411 64.8169 38.0238 64.2658 37.3144 63.7423C36.5855 63.2208 35.819 62.7559 35.0212 62.3516C34.3152 61.9805 33.6891 63.065 34.3972 63.4372L34.3961 63.4369Z" fill="#211715"/>
<path d="M28.2106 72.5697L23.1312 71.6054C22.6033 71.5054 21.7731 71.4661 21.8481 70.7058C21.8927 70.2559 22.0145 69.8004 22.0962 69.3562L23.2449 63.1084C23.5369 61.5244 23.8281 59.9403 24.1186 58.356C24.3459 57.1204 24.5732 55.8846 24.8006 54.6486C24.965 53.755 25.1098 52.8554 25.2938 51.9657C25.4896 51.0208 26.4806 51.4181 27.1232 51.5399L31.5993 52.3908L34.6472 52.9701C34.89 52.9937 35.1291 53.0465 35.3597 53.1272C35.5053 53.2011 35.6213 53.3239 35.688 53.4748C35.7547 53.6257 35.7681 53.7954 35.7258 53.9551L34.7209 59.4196C34.4653 60.809 34.2098 62.1984 33.9544 63.5877L33.7387 64.7649C33.6995 64.9255 33.7224 65.0953 33.8027 65.2392C33.8831 65.3831 34.0148 65.4902 34.1706 65.5383C34.3287 65.581 34.497 65.559 34.6393 65.4768C34.7815 65.3947 34.8864 65.259 34.9312 65.0991C35.1754 63.7678 35.42 62.4366 35.6647 61.1057L36.8265 54.794C36.8642 54.5891 36.9054 54.3849 36.9397 54.1798C37.0233 53.7744 36.9801 53.3526 36.816 52.9735C36.6519 52.5944 36.3752 52.277 36.0247 52.0658C35.7194 51.9126 35.3905 51.8138 35.0523 51.7738L33.6377 51.5048L28.9207 50.6083C28.0722 50.447 27.2247 50.2694 26.3734 50.1243C25.9237 50.0328 25.4567 50.1062 25.0553 50.3316C24.6538 50.5569 24.3439 50.9196 24.1807 51.3552C24.0832 51.6783 24.0135 52.0094 23.9723 52.3447C23.6478 54.1081 23.3234 55.8716 22.9991 57.635C22.7783 58.8345 22.5579 60.0338 22.3376 61.233L21.096 67.9862L20.7079 70.0974C20.6847 70.2234 20.66 70.3491 20.6412 70.4758C20.5666 70.9511 20.6672 71.4375 20.9236 71.8421C21.18 72.2466 21.5742 72.5408 22.0308 72.6682C22.7146 72.8494 23.4345 72.9377 24.1287 73.0694L27.3 73.6718L27.8836 73.7826C28.0416 73.8223 28.2086 73.7989 28.3501 73.7172C28.4916 73.6355 28.5969 73.5017 28.6442 73.3434C28.6863 73.1827 28.6647 73.0116 28.5839 72.867C28.5031 72.7224 28.3697 72.6158 28.2124 72.5702L28.2106 72.5697Z" fill="#211715"/>
<path d="M35.586 64.9724C33.1093 63.4316 30.619 61.9126 28.115 60.4154C27.5149 60.0579 26.7698 59.8238 26.0795 60.0503C25.1723 60.3481 24.5851 61.4512 25.0146 62.355C25.2826 62.9189 25.9218 63.3047 26.4 63.6711C26.9818 64.1163 27.5696 64.5534 28.1591 64.9879C29.4789 65.9614 30.802 66.9351 32.1565 67.8583C32.8195 68.3101 33.4391 67.2216 32.7808 66.773C31.7079 66.0415 30.6577 65.2747 29.609 64.5084C29.011 64.0719 28.4155 63.632 27.8223 63.1889C27.5633 62.9951 27.3056 62.8001 27.0494 62.6038C26.952 62.5295 26.8549 62.4547 26.7582 62.3797C26.7324 62.3597 26.6059 62.2605 26.6629 62.3055C26.7198 62.3506 26.5856 62.2443 26.5675 62.2296C26.4085 62.102 26.1584 61.9365 26.1006 61.7582C26.0884 61.6819 26.1056 61.6038 26.1486 61.54C26.1671 61.5038 26.1879 61.4688 26.2107 61.4352C26.2544 61.3749 26.3085 61.3231 26.3704 61.2823C26.7641 61.0442 27.2411 61.3496 27.5624 61.5416C28.6046 62.1644 29.6414 62.7966 30.6801 63.4272C32.1106 64.298 33.5401 65.1696 34.9635 66.0546C35.6442 66.4781 36.2662 65.3912 35.5878 64.969L35.586 64.9724Z" fill="#211715"/>
<path d="M25.5155 61.3103C24.8293 61.1532 24.1158 61.1888 23.5552 61.6631C23.2876 61.8934 23.0882 62.1945 22.979 62.5331C22.8698 62.8717 22.8552 63.2345 22.9368 63.581C23.189 64.534 24.0447 65.1966 24.7886 65.76C26.1663 66.8023 27.5611 67.8219 28.9548 68.842C29.5438 69.2731 30.1312 69.7063 30.7272 70.1282C30.8692 70.2108 31.0374 70.2334 31.1957 70.1912C31.3539 70.1491 31.4895 70.0454 31.5734 69.9027C31.6529 69.758 31.6742 69.5876 31.6329 69.4272C31.5915 69.2669 31.4907 69.129 31.3515 69.0426C30.2436 68.2593 29.1534 67.4466 28.0601 66.6413C27.4134 66.1646 26.7676 65.6865 26.1228 65.2069C25.8911 65.0342 25.6598 64.8609 25.4292 64.687C25.3467 64.6244 25.264 64.5621 25.1818 64.4987C25.1522 64.4759 25.1228 64.4526 25.0926 64.4298C24.9927 64.3549 25.2215 64.5416 25.12 64.451C24.7682 64.1367 24.0548 63.6103 24.1176 63.0585C24.1823 62.4881 24.7381 62.4192 25.1872 62.5227C25.9623 62.7008 26.2934 61.4892 25.516 61.3103H25.5155Z" fill="#211715"/>
<path d="M25.2348 64.9564C24.2698 64.847 23.6344 65.7371 23.661 66.6475C23.6821 67.3782 24.2157 67.9669 24.7483 68.4001C25.7756 69.2353 26.8403 70.0239 27.8946 70.8245C28.4412 71.2392 28.988 71.6534 29.5349 72.0672C29.6768 72.1503 29.8451 72.1733 30.0035 72.1311C30.1619 72.0889 30.2976 71.9849 30.3811 71.8417C30.46 71.6969 30.481 71.5267 30.4397 71.3665C30.3984 71.2063 30.2979 71.0685 30.1592 70.9816C29.2502 70.2913 28.3386 69.6043 27.4308 68.9126C26.9583 68.5523 26.4871 68.1897 26.0173 67.825C25.9817 67.7972 25.8913 67.7265 25.9781 67.7946L25.847 67.6912C25.772 67.6317 25.697 67.572 25.6228 67.5115C25.5344 67.4397 25.4458 67.3682 25.3628 67.2902C25.1265 67.0684 24.8439 66.7991 24.915 66.4453C24.9275 66.384 24.9456 66.324 24.9691 66.2662C24.908 66.4149 25.0498 66.1444 24.9774 66.2565C25.0083 66.2086 24.9987 66.2151 25.0243 66.2078C25.0944 66.2008 25.1651 66.2029 25.2348 66.2141C25.3985 66.2131 25.5552 66.1466 25.671 66.0289C25.7868 65.9112 25.8522 65.7519 25.8532 65.5855C25.8494 65.42 25.7831 65.2623 25.6679 65.1453C25.5527 65.0282 25.3976 64.9607 25.2348 64.9569V64.9564Z" fill="#211715"/>
<path d="M24.3791 68.0751C24.2115 68.2632 24.0934 68.4913 24.0359 68.7382C23.9784 68.9851 23.9833 69.2428 24.0501 69.4873C24.1668 70.0095 24.5214 70.4039 24.8453 70.8088C25.4669 71.5823 26.145 72.3071 26.8738 72.9771C27.6115 73.6523 28.3907 74.2791 29.2067 74.8536C30.0379 75.4426 30.9555 75.9902 31.966 76.1748C32.913 76.3334 33.8777 76.3502 34.8294 76.2249C34.9919 76.2199 35.1464 76.1521 35.2613 76.0353C35.3763 75.9185 35.443 75.7615 35.4478 75.5963C35.4469 75.4299 35.3814 75.2706 35.2657 75.1529C35.1499 75.0353 34.9932 74.9687 34.8294 74.9678C34.3455 75.0235 33.8585 75.0464 33.3716 75.0361C32.9738 75.0411 32.5764 75.0092 32.1843 74.9408C31.0851 74.7077 30.1407 74.015 29.2552 73.3474C28.3993 72.7013 27.5956 71.9865 26.8519 71.2101C26.469 70.8104 26.1034 70.3949 25.7551 69.9634C25.6324 69.8118 25.0382 69.2024 25.2537 68.964C25.7914 68.369 24.9187 67.4778 24.3791 68.0751Z" fill="#211715"/>
<path d="M39.3844 69.9502C38.9736 71.2314 38.3362 72.4256 37.5034 73.4741C36.7245 74.5554 35.725 75.4529 34.5733 76.1053C33.865 76.4751 34.4901 77.5602 35.1974 77.1906C36.5037 76.5097 37.5836 75.4045 38.4751 74.2359C39.4066 73.0599 40.1189 71.7207 40.5769 70.2844C40.8087 69.5084 39.6145 69.1769 39.3844 69.9502Z" fill="#211715"/>
<path d="M28.6792 53.2159C28.1708 53.1192 27.6623 53.0223 27.1539 52.9252C26.9928 52.885 26.8229 52.9076 26.6774 52.9886C26.5358 53.0727 26.4329 53.2105 26.3913 53.3718C26.3497 53.533 26.3728 53.7045 26.4556 53.8484C26.4955 53.9188 26.5486 53.9805 26.612 54.0299C26.6755 54.0793 26.7479 54.1155 26.8251 54.1365C27.3337 54.233 27.8422 54.3299 28.3504 54.4272C28.5115 54.4673 28.6816 54.4447 28.8271 54.3638C28.9687 54.2797 29.0716 54.1418 29.1132 53.9806C29.1548 53.8193 29.1317 53.6479 29.049 53.504C29.009 53.4336 28.9558 53.3719 28.8923 53.3225C28.8289 53.2731 28.7565 53.2368 28.6792 53.2159Z" fill="#211715"/>
</g>
<defs>
<clipPath id="clip0_124_2025">
<rect width="51" height="83" fill="white"/>
</clipPath>
</defs>
</svg>
